<svg preserveAspectRatio="none" width="100%" height="100%" overflow="visible" style="display: block;" viewBox="0 0 12 10" fill="none" xmlns="http://www.w3.org/2000/svg">
<path id="vector" d="M5.75 2C5.75 1.17157 6.42157 0.5 7.25 0.5H10.5C10.7761 0.5 11 0.723858 11 1V7.5C11 7.77614 10.7761 8 10.5 8H7.3885C7.04829 8 6.71481 8.08208 6.42541 8.26094C6.13602 8.4398 5.90214 8.69571 5.75 9M5.75 2C5.75 1.17157 5.07843 0.5 4.25 0.5H1C0.723858 0.5 0.5 0.723858 0.5 1V7.5C0.5 7.77614 0.723858 8 1 8H4.1115C4.45171 8 4.78519 8.08208 5.07459 8.26094C5.36398 8.4398 5.59786 8.69571 5.75 9M5.75 2V9" stroke="var(--stroke-0, #A3A3A3)" stroke-linecap="round" stroke-linejoin="round"/>
</svg>
