<svg preserveAspectRatio="none" width="100%" height="100%" overflow="visible" style="display: block;" viewBox="0 0 16 13" fill="none" xmlns="http://www.w3.org/2000/svg">
<path id="vector" d="M7.58333 2.75C7.58333 1.64543 8.47876 0.75 9.58333 0.75H13.75C14.1182 0.75 14.4167 1.04848 14.4167 1.41667V9.75C14.4167 10.1182 14.1182 10.4167 13.75 10.4167H9.768C9.31439 10.4167 8.86974 10.5261 8.48388 10.7646C8.09802 11.0031 7.78619 11.3443 7.58333 11.75M7.58333 2.75C7.58333 1.64543 6.6879 0.75 5.58333 0.75H1.41667C1.04848 0.75 0.75 1.04848 0.75 1.41667V9.75C0.75 10.1182 1.04848 10.4167 1.41667 10.4167H5.39867C5.85228 10.4167 6.29692 10.5261 6.68278 10.7646C7.06864 11.0031 7.38047 11.3443 7.58333 11.75M7.58333 2.75V11.75" stroke="var(--stroke-0, #737373)" stroke-width="1.5" stroke-linecap="round" stroke-linejoin="round"/>
</svg>
