<svg width="12" height="12" viewBox="0 0 12 12" fill="none" xmlns="http://www.w3.org/2000/svg">
<path d="M6 3.75C6 2.92157 6.67157 2.25 7.5 2.25H10.75C11.0261 2.25 11.25 2.47386 11.25 2.75V9.25C11.25 9.52614 11.0261 9.75 10.75 9.75H7.6385C7.29829 9.75 6.96481 9.83208 6.67541 10.0109C6.38602 10.1898 6.15214 10.4457 6 10.75M6 3.75C6 2.92157 5.32843 2.25 4.5 2.25H1.25C0.973858 2.25 0.75 2.47386 0.75 2.75V9.25C0.75 9.52614 0.973858 9.75 1.25 9.75H4.3615C4.70171 9.75 5.03519 9.83208 5.32459 10.0109C5.61398 10.1898 5.84786 10.4457 6 10.75M6 3.75V10.75" stroke="#737373" stroke-linecap="round" stroke-linejoin="round"/>
</svg>
